<svg xmlns="http://www.w3.org/2000/svg" width="491.996" height="290.6" viewBox="0 0 491.996 290.6">
  <g id="down-arrow" transform="translate(0 -100.698)">
    <g id="Group_87" data-name="Group 87">
      <path id="Path_1491" data-name="Path 1491" d="M484.132,124.986l-16.116-16.228a26.977,26.977,0,0,0-38.068,0L246.108,292.606,62.056,108.554a26.982,26.982,0,0,0-38.064,0L7.872,124.682a26.938,26.938,0,0,0,0,38.06L227.008,382.666c5.064,5.064,11.812,8.632,19.084,8.632h.084c7.212,0,13.96-3.572,19.024-8.632L484.132,163.338A27.183,27.183,0,0,0,492,144.114,26.912,26.912,0,0,0,484.132,124.986Z" fill="#59f1c7"/>
    </g>
  </g>
</svg>
