<svg id="strikethrough" xmlns="http://www.w3.org/2000/svg" width="18.761" height="16.082" viewBox="0 0 18.761 16.082">
  <g id="Group_76" data-name="Group 76">
    <path id="Path_1420" data-name="Path 1420" d="M110.675,43.905h7.778a9.3,9.3,0,0,0-.995-.544,14.981,14.981,0,0,0-1.811-.691,7.222,7.222,0,0,1-2.921-1.35,2.086,2.086,0,0,1-.691-1.466,1.936,1.936,0,0,1,.7-1.529,2.807,2.807,0,0,1,1.905-.618,2.953,2.953,0,0,1,2.2.953,6.063,6.063,0,0,1,1.078,2.146l.147.021.879.063.126-.031a2.678,2.678,0,0,0,.052-.471,18.653,18.653,0,0,0-.147-1.916,11.543,11.543,0,0,0-.22-1.235,15.189,15.189,0,0,0-1.853-.5,12.553,12.553,0,0,0-1.748-.2,5.744,5.744,0,0,0-4.115,1.33,4.311,4.311,0,0,0-1.4,3.235,4.426,4.426,0,0,0,.5,1.968A4.9,4.9,0,0,0,110.675,43.905Z" transform="translate(-105.619 -36.535)" fill="#1e3127"/>
    <path id="Path_1421" data-name="Path 1421" d="M124.1,310.624a5.91,5.91,0,0,1,1.434.743,2.21,2.21,0,0,1,.848,1.644,2.178,2.178,0,0,1-.492,1.351,2.579,2.579,0,0,1-1.277.9,4.308,4.308,0,0,1-1.455.283,3.934,3.934,0,0,1-1.382-.23,3.383,3.383,0,0,1-1.1-.6,3.9,3.9,0,0,1-.838-.984,1.891,1.891,0,0,1-.131-.282q-.078-.2-.236-.586t-.314-.743l-1.068.021v.461l-.021.388q-.01.4,0,.712.021.5.021,1.633v.136a.312.312,0,0,0,.084.23,2.56,2.56,0,0,0,.754.293l1.466.419a7.542,7.542,0,0,0,2.041.241,8.556,8.556,0,0,0,2.125-.22,5.9,5.9,0,0,0,1.6-.691,7.9,7.9,0,0,0,1.141-.848,3.481,3.481,0,0,0,.743-1.089,5.84,5.84,0,0,0,.429-2.219,5.542,5.542,0,0,0-.073-.963h-4.3Z" transform="translate(-113.737 -300.573)" fill="#1e3127"/>
    <path id="Path_1422" data-name="Path 1422" d="M18.667,255.9a.327.327,0,0,0-.241-.094H.335a.322.322,0,0,0-.335.335v.67a.322.322,0,0,0,.335.335H18.426a.322.322,0,0,0,.335-.335v-.67A.326.326,0,0,0,18.667,255.9Z" transform="translate(0 -247.767)" fill="#1e3127"/>
  </g>
</svg>
