<svg xmlns="http://www.w3.org/2000/svg" width="21.62" height="16" viewBox="0 0 21.62 16">
  <path id="Monospaced_Font-595b40b85ba036ed117dda24" data-name="Monospaced Font-595b40b85ba036ed117dda24" d="M14.573,7.963a.94.94,0,0,0-.823,1.072l1.41,11.75a.94.94,0,0,0,1.777.308l1.513-3.026,1.513,3.026a.94.94,0,0,0,1.777-.308l1.41-11.75A.947.947,0,1,0,21.27,8.8l-1.043,8.636-.837-1.674s0-.01,0-.015a1,1,0,0,0-.749-.734L18.6,15h-.235a.94.94,0,0,0-.1.015q-.037.006-.073.015l-.015.015q-.037.006-.073.015l-.015.015a.94.94,0,0,0-.573.661q0,.015,0,.029l-.837,1.674L15.63,8.8a.94.94,0,0,0-.969-.837q-.044,0-.088,0Zm-7.505.015a.94.94,0,0,0-.808.69l-3.29,11.75a.944.944,0,1,0,1.821.5l1.116-4.01H8.433l1.116,4.01a.944.944,0,1,0,1.821-.5L8.081,8.668a.94.94,0,0,0-1.013-.69Zm.1,4.436L7.9,15.028H6.436ZM2,22.078v1.41a.47.47,0,0,0,.47.47h9.4a.47.47,0,0,0,.47-.47v-1.41H11.4v.94H2.94v-.94Zm11.28,0v1.41a.47.47,0,0,0,.47.47h9.4a.47.47,0,0,0,.47-.47v-1.41h-.94v.94H14.22v-.94Z" transform="translate(-2 -7.958)" fill="#1e3127"/>
</svg>
