<svg id="bold-text-option" xmlns="http://www.w3.org/2000/svg" width="14.666" height="16" viewBox="0 0 14.666 16">
  <path id="Path_1418" data-name="Path 1418" d="M31.985,8.594A5.028,5.028,0,0,0,29.2,7.073a11.335,11.335,0,0,0,1.563-.8,3.467,3.467,0,0,0,.989-1.094,2.714,2.714,0,0,0,.333-1.333,3.645,3.645,0,0,0-.219-1.271,3.189,3.189,0,0,0-.677-1.083A3.931,3.931,0,0,0,30.131.7a6.739,6.739,0,0,0-1-.406A7.879,7.879,0,0,0,27.141.01h-.771q-.208,0-.422-.005L25.725,0c-.035,0-.083,0-.146.005s-.111.005-.146.005l-.469.01L21.006.156,18.3.219l.042.864q.875.115,1.187.136a1.592,1.592,0,0,1,.719.156q.115.083.125.125a3.726,3.726,0,0,1,.115,1.135q.042,1.542.094,4.208l.021,5.177a16.163,16.163,0,0,1-.094,2.021,1.464,1.464,0,0,1-.219.531,5.783,5.783,0,0,1-1.281.323q-.239.031-.708.125L18.277,16q2.489-.084,2.833-.115,2.229-.136,3.1-.115l2.052.041a9.794,9.794,0,0,0,2.063-.115,8.353,8.353,0,0,0,2.115-.625A4.911,4.911,0,0,0,31.9,13.948a3.458,3.458,0,0,0,.74-1.219,5.2,5.2,0,0,0,.3-1.677A3.659,3.659,0,0,0,31.985,8.594ZM23.829,1.209a8.513,8.513,0,0,1,1.354-.135,3.89,3.89,0,0,1,2.656.781A2.492,2.492,0,0,1,28.725,3.8,2.7,2.7,0,0,1,27.8,6.136a4.642,4.642,0,0,1-2.75.677,7.279,7.279,0,0,1-1.135-.073q-.011-.354-.011-.8l.011-1.021q.01-1.635-.063-2.906Q23.829,1.667,23.829,1.209Zm5.208,12.031a2.671,2.671,0,0,1-1.271,1.177,5.179,5.179,0,0,1-2.25.427,3.786,3.786,0,0,1-1.458-.333,1.343,1.343,0,0,1-.125-.458L23.9,11.239l.011-1.8v-1.5a3.515,3.515,0,0,1,1.052-.1,7.385,7.385,0,0,1,2.573.333,3.035,3.035,0,0,1,1.469,1.313,3.537,3.537,0,0,1,.427,1.875A3.939,3.939,0,0,1,29.037,13.239Z" transform="translate(-18.277 0)" fill="#1e3127"/>
</svg>
