<svg id="whatsapp" xmlns="http://www.w3.org/2000/svg" width="17.922" height="18" viewBox="0 0 17.922 18">
  <path id="Path_1409" data-name="Path 1409" d="M.383,18a.383.383,0,0,1-.369-.484l1.17-4.273A8.926,8.926,0,1,1,9,17.852h0a8.943,8.943,0,0,1-4.13-1.014L.48,17.987a.385.385,0,0,1-.1.012Zm0,0" transform="translate(0 0.001)" fill="#e5e5e5"/>
  <path id="Path_1410" data-name="Path 1410" d="M10.894,28.129,12.106,23.7a8.543,8.543,0,1,1,7.4,4.277h0a8.535,8.535,0,0,1-4.082-1.04ZM15.633,25.4l.259.154a7.09,7.09,0,0,0,3.614.99h0a7.1,7.1,0,1,0-6.015-3.327l.169.269L12.945,26.1Zm0,0" transform="translate(-10.511 -10.512)" fill="#fff"/>
  <path id="Path_1411" data-name="Path 1411" d="M19.344,36.021l1.17-4.272a8.247,8.247,0,1,1,7.146,4.129h0a8.245,8.245,0,0,1-3.941-1Zm0,0" transform="translate(-18.664 -18.702)" fill="#64b161"/>
  <g id="Group_65" data-name="Group 65" transform="translate(0.383 0.383)">
    <path id="Path_1412" data-name="Path 1412" d="M10.894,28.129,12.106,23.7a8.543,8.543,0,1,1,7.4,4.277h0a8.535,8.535,0,0,1-4.082-1.04ZM15.633,25.4l.259.154a7.09,7.09,0,0,0,3.614.99h0a7.1,7.1,0,1,0-6.015-3.327l.169.269L12.945,26.1Zm0,0" transform="translate(-10.894 -10.895)" fill="#fff"/>
    <path id="Path_1413" data-name="Path 1413" d="M134.651,141.987c-.16-.355-.328-.363-.48-.369-.124-.005-.267-.005-.409-.005a.784.784,0,0,0-.569.267,2.393,2.393,0,0,0-.747,1.78,4.151,4.151,0,0,0,.872,2.208,8.761,8.761,0,0,0,3.646,3.222c1.8.711,2.17.57,2.561.534a2.156,2.156,0,0,0,1.441-1.015,1.782,1.782,0,0,0,.125-1.015c-.053-.089-.2-.142-.409-.249s-1.263-.623-1.458-.694-.338-.107-.48.107-.551.694-.676.836-.249.161-.463.054a5.836,5.836,0,0,1-1.716-1.059,6.432,6.432,0,0,1-1.188-1.478c-.124-.213,0-.319.094-.435a6.437,6.437,0,0,0,.533-.73.393.393,0,0,0-.018-.374C135.256,143.465,134.841,142.409,134.651,141.987Zm0,0" transform="translate(-128.172 -137.017)" fill="#fff" fill-rule="evenodd"/>
  </g>
</svg>
